<?xml version="1.0" standalone="no"?>
<!DOCTYPE svg PUBLIC "-//W3C//DTD SVG 20010904//EN"
 "http://www.w3.org/TR/2001/REC-SVG-20010904/DTD/svg10.dtd">
<svg version="1.0" xmlns="http://www.w3.org/2000/svg"
 width="1290.000000pt" height="1290.000000pt" viewBox="0 0 1290.000000 1290.000000"
 preserveAspectRatio="xMidYMid meet">
<metadata>
Created by potrace 1.11, written by Peter Selinger 2001-2013
</metadata>
<g transform="translate(0.000000,1290.000000) scale(0.100000,-0.100000)"
fill="#000000" stroke="none">
<path d="M18 8828 c11 -18 62 -109 114 -203 53 -93 110 -194 127 -223 17 -29
31 -55 31 -57 0 -3 18 -34 40 -70 22 -36 40 -67 40 -70 0 -2 43 -79 95 -170
52 -92 95 -169 95 -171 0 -2 10 -21 23 -42 13 -20 37 -62 54 -92 74 -134 194
-346 203 -360 6 -8 13 -22 17 -30 4 -8 58 -105 120 -214 62 -109 113 -200 113
-202 0 -2 18 -33 40 -69 22 -36 40 -67 40 -69 0 -3 73 -133 118 -211 46 -79
202 -357 202 -360 0 -2 19 -36 43 -77 24 -40 57 -98 74 -128 16 -30 101 -181
188 -335 87 -154 169 -300 183 -325 14 -25 129 -229 257 -455 127 -225 234
-417 238 -425 4 -8 20 -36 35 -61 15 -25 74 -129 132 -232 57 -102 105 -185
106 -184 1 1 66 117 145 257 78 140 169 302 202 360 69 121 46 81 332 590 123
217 232 411 242 430 11 19 71 125 133 235 62 110 150 266 196 347 46 81 96
168 110 195 58 104 470 834 529 938 35 61 75 131 89 158 14 26 37 66 49 90 13
23 71 125 129 227 99 173 158 279 231 410 17 30 41 72 54 92 13 21 23 40 23
42 0 3 15 31 34 63 19 32 81 142 139 246 l105 187 -1042 0 -1043 0 0 -235 1
-235 643 0 c354 0 643 -2 643 -4 0 -3 -78 -144 -174 -313 -196 -348 -205 -364
-234 -413 -16 -28 -177 -314 -392 -695 -9 -16 -124 -219 -255 -450 -131 -231
-249 -440 -263 -465 -24 -43 -135 -240 -172 -305 -78 -137 -198 -349 -220
-390 -95 -172 -229 -400 -236 -402 -6 -2 -20 16 -32 39 -12 24 -34 66 -50 94
-31 53 -141 247 -184 324 -14 25 -74 131 -133 235 -60 105 -125 219 -145 255
-48 86 -401 709 -558 985 -69 121 -140 248 -159 283 l-33 62 27 1 c16 0 274 0
575 1 l547 0 0 264 c-1 239 -2 264 -17 265 -9 0 -336 1 -727 2 l-710 2 -69
120 c-37 66 -117 206 -176 310 l-107 190 903 3 902 2 1 235 0 235 -1300 0
-1301 0 20 -32z"/>
<path d="M2709 8858 c-3 -6 -4 -3666 -1 -3663 3 2 138 231 272 460 26 44 98
168 162 275 63 107 121 206 128 220 11 20 13 273 12 1350 0 729 -1 1333 -1
1343 -1 16 -22 17 -286 17 -157 0 -286 -1 -286 -2z"/>
<path d="M5690 7220 l0 -600 158 0 158 0 0 248 0 247 96 3 97 3 0 114 0 115
-93 0 c-66 0 -95 4 -98 13 -3 10 -3 183 1 210 1 4 48 7 106 7 93 0 105 2 106
18 0 9 1 63 2 119 l2 103 -267 0 -268 0 0 -600z"/>
<path d="M7052 7743 l3 -78 155 0 155 0 0 78 1 77 -159 0 -158 0 3 -77z"/>
<path d="M8290 7220 l0 -602 283 4 c272 3 284 4 329 26 109 54 112 68 112 552
1 453 -1 468 -70 537 -67 67 -106 75 -401 80 l-253 5 0 -602z m398 373 c14
-19 13 -4 14 -379 1 -330 -3 -367 -38 -383 -63 -28 -59 -51 -57 386 1 219 2
400 2 402 2 10 68 -11 79 -26z"/>
<path d="M6483 7605 c-145 -39 -207 -126 -212 -297 l-3 -88 141 0 c78 0 141 3
142 8 0 4 1 50 2 102 1 52 6 101 10 108 13 20 55 14 68 -10 7 -13 13 -58 13
-102 1 -96 0 -96 -150 -156 -210 -85 -227 -108 -222 -310 4 -158 18 -192 98
-232 94 -49 205 -30 262 42 l26 33 -4 -41 -4 -42 150 0 150 0 -2 347 c-1 190
-6 378 -11 417 -15 124 -72 190 -192 221 -73 18 -192 19 -262 0z m162 -676
c-1 -108 -5 -143 -16 -150 -21 -13 -45 -11 -59 7 -16 18 -22 136 -10 189 8 36
66 109 80 100 4 -2 6 -68 5 -146z"/>
<path d="M7879 7600 c-34 -18 -82 -66 -105 -105 -8 -14 -9 -4 -6 43 l4 62
-150 0 -150 0 0 -490 0 -490 149 0 c82 0 149 3 150 8 0 4 2 127 3 273 2 193 6
275 16 298 15 37 52 59 113 67 23 4 43 7 45 9 3 2 5 272 3 328 -1 22 -26 21
-72 -3z"/>
<path d="M9535 7601 c-48 -22 -79 -51 -100 -91 -9 -17 -17 -30 -19 -30 -4 0 2
74 8 103 4 16 -8 17 -148 17 l-152 0 0 -490 -1 -490 151 0 151 0 1 278 c1 345
2 347 134 370 l44 7 1 160 c0 88 -1 166 -3 173 -5 16 -20 15 -67 -7z"/>
<path d="M9868 7606 c-100 -29 -167 -92 -195 -184 -14 -48 -17 -98 -17 -312 0
-178 3 -269 12 -300 36 -124 140 -197 299 -207 108 -7 179 8 244 50 57 37 116
123 124 180 8 58 13 169 7 185 -3 9 -41 12 -143 12 -125 0 -139 -2 -140 -17 0
-10 -2 -62 -3 -117 -2 -83 -5 -100 -21 -112 -10 -8 -26 -14 -36 -14 -35 0 -42
26 -43 173 l-1 142 195 5 195 5 0 75 c0 185 -24 285 -86 349 -62 66 -134 94
-248 97 -60 2 -114 -2 -143 -10z m160 -168 c5 -7 10 -52 11 -100 l2 -88 -43 0
-44 0 3 92 c2 92 8 108 44 108 9 0 21 -6 27 -12z"/>
<path d="M10634 7603 c-73 -21 -144 -78 -174 -138 -20 -40 -25 -69 -28 -147
l-4 -98 141 0 141 0 1 53 c1 96 6 154 13 165 12 20 54 14 67 -10 7 -12 12 -58
13 -101 1 -97 0 -97 -150 -157 -148 -60 -195 -93 -212 -150 -20 -70 -12 -274
13 -325 53 -106 251 -127 329 -34 14 16 26 29 29 29 2 0 3 -16 2 -35 l-2 -35
148 0 148 0 -1 345 c-1 189 -5 377 -10 417 -14 114 -61 178 -161 215 -60 22
-238 26 -303 6z m171 -669 c-2 -151 -5 -163 -46 -164 -30 0 -43 30 -44 103 -2
97 8 133 46 173 18 19 36 34 39 34 4 0 6 -66 5 -146z"/>
<path d="M11603 7599 c-24 -12 -54 -34 -68 -51 -25 -29 -25 -29 -26 -6 -1 13
-1 31 0 41 2 15 -11 17 -148 17 l-150 0 0 -490 0 -490 147 0 148 0 0 401 c0
385 1 402 20 416 29 21 56 12 66 -22 5 -16 9 -202 9 -413 l1 -383 146 3 146 3
1 396 c1 417 2 429 45 429 20 0 40 -21 45 -47 2 -10 4 -190 4 -400 l1 -383
148 0 147 0 -1 388 c-1 213 -4 410 -7 439 -7 62 -26 101 -64 129 -89 65 -208
57 -285 -20 l-41 -41 -41 41 c-65 65 -163 83 -243 43z"/>
<path d="M7051 7110 l0 -491 157 3 157 3 0 487 0 488 -157 0 -157 0 0 -490z"/>
<path d="M5699 6463 c-1 -25 -1 -185 0 -205 1 -16 12 -18 91 -18 79 0 90 -2
91 -17 0 -10 1 -226 1 -480 l1 -463 157 0 157 0 1 458 c0 251 1 467 1 480 1
21 5 22 91 22 53 0 90 4 91 10 0 6 0 53 0 105 0 52 0 102 0 110 -1 13 -46 15
-341 15 -317 0 -340 -1 -341 -17z"/>
<path d="M7903 5880 l0 -600 151 0 151 0 0 399 c1 419 2 431 45 431 43 0 45
-12 45 -429 l0 -396 151 -3 152 -3 -2 428 c-2 294 -6 437 -14 456 -46 110
-215 151 -331 80 l-47 -30 1 131 0 131 -151 3 -151 3 0 -601z"/>
<path d="M10277 6473 c-2 -5 -5 -275 -5 -600 l0 -593 157 0 156 0 0 598 0 597
-152 3 c-83 1 -154 -1 -156 -5z"/>
<path d="M6570 6261 c-112 -36 -163 -89 -190 -197 -21 -81 -21 -522 -1 -594
41 -144 173 -218 368 -207 136 8 221 56 273 157 25 49 46 217 32 258 -3 9 -41
12 -143 12 -76 0 -139 -3 -140 -7 0 -5 -1 -57 -3 -117 -2 -93 -5 -110 -21
-122 -25 -18 -49 -18 -65 2 -13 14 -21 241 -12 287 4 15 22 17 196 17 l192 0
-2 108 c-5 186 -23 257 -85 321 -62 66 -133 94 -248 97 -70 2 -111 -2 -151
-15z m170 -170 c5 -11 10 -56 10 -101 l0 -81 -42 3 -43 3 1 89 c2 91 8 106 46
106 10 0 22 -9 28 -19z"/>
<path d="M7361 6264 c-67 -18 -109 -43 -154 -94 -56 -61 -61 -93 -61 -390 0
-289 7 -340 58 -409 59 -79 165 -117 306 -109 102 6 163 30 216 85 59 60 82
122 89 236 l5 97 -135 0 -135 0 0 -42 c-1 -113 -8 -178 -20 -193 -17 -21 -43
-19 -65 5 -18 19 -19 43 -19 325 0 319 3 335 45 335 29 0 39 -32 39 -129 l0
-91 145 0 145 0 -5 68 c-3 37 -10 87 -16 112 -37 159 -237 248 -438 194z"/>
<path d="M9110 6264 c-19 -8 -51 -31 -71 -50 l-36 -35 4 40 4 41 -154 0 -154
0 0 -490 -1 -490 152 0 151 0 0 399 c1 419 2 431 45 431 42 0 43 -13 44 -428
l1 -397 151 -3 150 -3 -1 423 c-1 375 -3 427 -19 463 -9 21 -24 48 -34 59 -45
51 -160 71 -232 40z"/>
<path d="M9698 6267 c-89 -25 -160 -89 -188 -167 -21 -62 -24 -101 -23 -355 0
-197 4 -260 16 -298 25 -79 55 -114 127 -150 62 -31 69 -32 190 -32 114 0 130
2 180 26 95 45 155 126 165 224 3 28 6 155 6 284 0 274 -6 304 -79 380 -65 68
-131 93 -252 97 -59 3 -113 -1 -142 -9z m162 -176 c6 -12 10 -132 10 -321 0
-189 -4 -309 -10 -321 -13 -23 -43 -25 -60 -3 -19 22 -20 625 -1 648 18 22 48
20 61 -3z"/>
<path d="M10911 6270 c-92 -20 -176 -91 -201 -173 -22 -70 -23 -84 -24 -342 0
-209 3 -259 17 -308 22 -72 70 -127 140 -158 45 -20 68 -23 177 -24 115 0 130
2 181 26 95 45 154 126 164 224 7 69 7 493 0 530 -17 89 -84 167 -175 205 -62
26 -203 36 -279 20z m149 -179 c6 -12 10 -132 10 -321 0 -189 -4 -309 -10
-321 -13 -23 -43 -25 -61 -3 -19 23 -19 625 0 648 18 22 48 20 61 -3z"/>
<path d="M11560 6258 c-97 -50 -108 -97 -105 -448 2 -285 6 -311 56 -360 75
-71 212 -80 301 -18 14 10 29 18 32 18 11 0 -1 -139 -13 -154 -28 -34 -81 -13
-81 31 0 23 0 23 -149 23 l-149 0 4 -37 c7 -57 45 -125 83 -150 47 -32 92 -43
197 -50 196 -12 328 40 387 152 20 39 21 52 22 518 l2 477 -143 0 -143 0 -7
-35 -6 -35 -39 34 c-70 59 -171 73 -249 34z m270 -163 c18 -22 19 -480 1 -512
-14 -27 -43 -30 -62 -7 -19 23 -19 495 0 518 17 20 45 20 61 1z"/>
<path d="M12193 6238 c5 -18 86 -422 141 -698 3 -14 13 -65 23 -113 20 -102
15 -119 -38 -124 -58 -6 -58 -6 -56 -89 l1 -76 171 4 c156 3 174 6 219 28 92
46 115 117 152 460 2 25 6 61 9 80 3 19 7 58 10 85 3 28 12 100 20 160 8 61
17 130 19 155 3 25 8 69 12 98 l6 52 -136 0 c-102 0 -136 -3 -137 -12 0 -7 -2
-20 -4 -29 -1 -8 -6 -69 -10 -135 -4 -65 -8 -135 -10 -154 -7 -74 -18 -246
-17 -262 0 -10 -3 -18 -7 -18 -4 0 -13 39 -20 88 -13 88 -17 113 -25 167 -4
32 -17 116 -21 150 -2 11 -6 43 -10 70 -4 28 -10 68 -14 90 l-7 40 -138 3
-138 3 5 -23z"/>
</g>
</svg>
