<svg id="圖層_1" data-name="圖層 1" xmlns="http://www.w3.org/2000/svg" viewBox="0 0 400 200"><defs><style>.cls-1{fill:#68a9c7;}.cls-2,.cls-3{fill:#003354;}.cls-3{fill-rule:evenodd;}</style></defs><title>集結全球好設計</title><circle class="cls-1" cx="195.33" cy="76.59" r="66.78"/><path class="cls-2" d="M194.79,49.29c-19.53,0-37.9-4.41-51.72-12.42a.59.59,0,0,1-.22-.82.61.61,0,0,1,.82-.22c13.64,7.91,31.8,12.26,51.12,12.26,19.92,0,39.15-4.83,52.76-13.24a.6.6,0,0,1,.63,1C234.18,44.52,215.22,49.29,194.79,49.29Z"/><path class="cls-2" d="M195.87,143.94c-20,0-36.24-30.3-36.24-67.55,0-37.87,15.6-67.54,35.52-67.54,20.37,0,36.95,30.3,36.95,67.54S215.85,143.94,195.87,143.94Zm-.72-133.89c-19.25,0-34.32,29.14-34.32,66.34,0,36.59,15.72,66.35,35,66.35s35-29.76,35-66.35C230.9,40.43,214.53,10.05,195.15,10.05Z"/><path class="cls-2" d="M246.2,119.22a.56.56,0,0,1-.3-.08c-13.64-7.9-31.79-12.25-51.11-12.25-21.61,0-38.22,3.73-50.81,11.43a.6.6,0,0,1-.62-1c12.77-7.81,29.6-11.6,51.43-11.6,19.52,0,37.89,4.41,51.71,12.41a.6.6,0,0,1,.22.82A.58.58,0,0,1,246.2,119.22Z"/><path class="cls-2" d="M261.74,77.37H128.55a.6.6,0,0,1,0-1.2H261.74a.6.6,0,0,1,0,1.2Z"/><path class="cls-2" d="M195.51,143.6a.6.6,0,0,1-.6-.6V9.81a.6.6,0,0,1,.6-.6.6.6,0,0,1,.6.6V143A.6.6,0,0,1,195.51,143.6Z"/><path class="cls-2" d="M145.08,189.1c-38.59,0-71.21-13.62-93-26.12-27.66-15.87-44.34-33.4-44.51-33.57a.61.61,0,0,1,0-.82L46.24,87.16a.6.6,0,0,1,.77-.09c.13.08,12.33,8.19,33.69,16,15.65,5.74,40.42,5.69,53.8,5.15a7.55,7.55,0,0,1,7.85,7.39l.07,3.73a7.58,7.58,0,0,1-7.43,7.69c-12.38.26-22.53,1.41-30.16,3.41-1.46.38-2.84.8-4.1,1.24,12.48,4.1,27.8,7.41,50.74-.27a7,7,0,0,1,5.61.51,6.73,6.73,0,0,1,3.31,4.37l3.32,14c0,.1,0,.2,0,.29a5,5,0,0,1,3.49,2.93l2.64,6.25a4,4,0,0,1-1.45,4.94A26.1,26.1,0,0,1,156.33,169c6.29.86,10.57,1.22,11.12,1.26a2.68,2.68,0,0,1,2.18.68c1.48,1.37,1.4,4.27,1.4,4.39l.12,6.1a6.39,6.39,0,0,1-5.63,6.43A163,163,0,0,1,145.08,189.1ZM8.83,129A214.07,214.07,0,0,0,52.7,162c25.38,14.55,65.53,30.64,112.67,24.67a5.19,5.19,0,0,0,4.58-5.21l-.12-6.13c0-.72-.12-2.68-1-3.5a1.56,1.56,0,0,0-1.3-.37h-.11a247.82,247.82,0,0,1-36.16-5.92c-24.79-6.15-39-14.88-42.26-25.95a.62.62,0,0,1,0-.23c0-.2.63-5,10.25-8.79,7.94-3.14,19.65-4.73,34.79-4.73a1.45,1.45,0,0,1,.63.06H135a6.38,6.38,0,0,0,6.25-6.47l-.07-3.72a6.34,6.34,0,0,0-6.6-6.22c-13.47.54-38.42.58-54.26-5.23C61,97.16,49.13,89.85,46.78,88.34Zm81.35,10.36c5.47,18,41.91,26,62.76,29.13a.6.6,0,0,1,.6-.59,25.34,25.34,0,0,0,14.23-4.18,2.84,2.84,0,0,0,1-3.49L166.15,154a3.79,3.79,0,0,0-3-2.29.59.59,0,0,1-.51-.52l0-.24a2.23,2.23,0,0,0-.05-.36l-3.32-14a5.54,5.54,0,0,0-2.73-3.6,5.78,5.78,0,0,0-4.64-.42c-24.29,8.13-40.16,4.13-53.12-.27a.49.49,0,0,1-.25-.17C91.45,135.23,90.33,138.71,90.18,139.35Z"/><path class="cls-2" d="M131.71,157.81a129.69,129.69,0,0,1-28.16-3.55.6.6,0,1,1,.26-1.18c17.15,3.82,37.57,6.48,58.93-2.66a.59.59,0,0,1,.78.32.6.6,0,0,1-.31.79A79,79,0,0,1,131.71,157.81Z"/><path class="cls-2" d="M122,148.74c-10.86,0-22.4-2.1-32.41-8.49l.65-1c28.48,18.2,69.88.88,70.3.7l.47,1.11C160.73,141.17,142.61,148.74,122,148.74Z"/><path class="cls-2" d="M276.18,138.65a.6.6,0,0,1-.6-.6.6.6,0,0,1,.6-.6c2.7,0,5.41,0,8.06-.09a.65.65,0,0,1,.61.59.59.59,0,0,1-.58.61C281.61,138.62,278.89,138.65,276.18,138.65Z"/><path class="cls-2" d="M295.36,138.16a.6.6,0,0,1-.6-.57.6.6,0,0,1,.57-.63c5.62-.29,11.2-.71,16.59-1.24a.6.6,0,0,1,.12,1.19c-5.41.54-11,1-16.65,1.25ZM323,135.6a.6.6,0,0,1-.6-.51.61.61,0,0,1,.52-.68c5.71-.79,11.22-1.72,16.39-2.79a.6.6,0,0,1,.24,1.18c-5.19,1.07-10.73,2-16.47,2.8Zm27.24-5.34a.61.61,0,0,1-.58-.44.62.62,0,0,1,.43-.74,121.35,121.35,0,0,0,15.7-5.27.6.6,0,0,1,.79.32.59.59,0,0,1-.32.78,122.27,122.27,0,0,1-15.86,5.33Zm25.61-10.45a.6.6,0,0,1-.33-1.1C381.16,115,384,111,384,106.94a5.93,5.93,0,0,0-.06-.84.6.6,0,0,1,.52-.67.59.59,0,0,1,.67.51,6.73,6.73,0,0,1,.07,1c0,4.48-3,8.77-9,12.77A.61.61,0,0,1,375.86,119.81ZM378,98.13a.63.63,0,0,1-.34-.1,63.66,63.66,0,0,0-14.9-7,.6.6,0,0,1-.37-.76.59.59,0,0,1,.76-.37A64.74,64.74,0,0,1,378.32,97a.59.59,0,0,1,.16.83A.61.61,0,0,1,378,98.13ZM352.29,87.87l-.15,0c-4.95-1.3-10.41-2.51-16.23-3.61a.6.6,0,1,1,.22-1.18c5.85,1.1,11.34,2.32,16.31,3.63a.6.6,0,0,1-.15,1.18ZM325.06,82.4H325c-5.3-.8-10.85-1.51-16.51-2.12a.59.59,0,0,1-.53-.66.6.6,0,0,1,.66-.53c5.67.61,11.24,1.32,16.56,2.13a.6.6,0,0,1-.09,1.19Zm-27.6-3.16h0c-5.48-.45-11.07-.79-16.61-1a.6.6,0,0,1-.57-.63.64.64,0,0,1,.63-.57c5.55.24,11.15.59,16.65,1a.6.6,0,0,1-.05,1.2Z"/><path class="cls-2" d="M269.65,77.86h0c-2.69,0-5.4-.07-8.06-.07a.6.6,0,1,1,0-1.2c2.66,0,5.38,0,8.08.07a.6.6,0,0,1,0,1.2Z"/><circle class="cls-1" cx="90.81" cy="53.95" r="9.43"/><g id="_5" data-name="5"><path class="cls-3" d="M333.19,136l-.05-2.53,4.58-12.73-7.93,1.84-4.69,8.13-21.05.21,11.61-30.78-5.41-.45-24.39,31.8s-15.63.94-18.43,2.55-3.88,4,.15,5.94,19.12,2.19,19.12,2.19l24.37,26,8,1L304.3,140.44l19.91-.2,8.25,8.19,7.11-.62Z"/></g></svg>