<svg id="圖層_1" data-name="圖層 1" xmlns="http://www.w3.org/2000/svg" viewBox="0 0 400 200"><defs><style>.cls-1{fill:#68a9c7;}.cls-2{fill:#003354;}</style></defs><title>優質獨立創作者</title><path class="cls-1" d="M109,84.77,74,88.11c-4.54.43-9.26.92-13.06,3.22s-6.36,7-4.58,11c.86,1.93,2.59,3.49,3.24,5.49,1.87,5.78-5.74,9.74-11.91,11s-12.88,2.34-18.25,5.62-9.27,9.56-7.36,15.46c1.38,4.21,5.3,7.26,9.27,9.63,20.08,12,45.24,13.14,68.37,10,9-1.22,18-7.07,25.86-11.14,5.14-2.65,9.76-6.22,15.29-8.09,8.85-3,18.74-1.27,28.2-1.65s20.16-4.21,22.43-12.82c2.09-7.94-4-11.91-10.51-17.59-21.86-19-53.52-27.45-82.06-21.83"/><path class="cls-2" d="M275.06,168.42h0l-126.48-6.76a.61.61,0,0,1-.57-.59l-.26-11.93a.6.6,0,0,1,.57-.61l126.41-6a.66.66,0,0,1,.44.16.64.64,0,0,1,.18.43l.34,24.72a.59.59,0,0,1-.18.44A.63.63,0,0,1,275.06,168.42Zm-125.89-7.93,125.28,6.7-.32-23.46-125.2,6Z"/><path class="cls-2" d="M275.06,168.42a.67.67,0,0,1-.34-.1.61.61,0,0,1-.26-.49l-.34-24.8a.63.63,0,0,1,.24-.49.62.62,0,0,1,.54-.09L311,153.66a.61.61,0,0,1,.42.55.6.6,0,0,1-.39.58l-35.77,13.59A.49.49,0,0,1,275.06,168.42Zm.27-24.58.32,23.12L309,154.29Z"/><polygon class="cls-2" points="299.85 150.57 300 159 310.83 154.08 299.85 150.57"/><path class="cls-2" d="M145.63,112.51a.58.58,0,0,1-.42-.18l-9.6-9.79a.58.58,0,0,1-.17-.46.63.63,0,0,1,.22-.44c54.7-42.81,95.45-67.24,110.43-75.75a2.21,2.21,0,0,1,2.68,3.45C218.61,60.66,146.7,111.89,146,112.4A.56.56,0,0,1,145.63,112.51Zm-8.7-10.34,8.77,9c6-4.26,73.32-52.63,102.2-82.62a1,1,0,0,0-1.22-1.58C231.78,35.41,191.3,59.67,136.93,102.17Z"/><path class="cls-2" d="M109.06,139.27s23.39-4.55,30.56-18.33a8.08,8.08,0,0,0-8.24-11.72C122.59,110.44,111,116.47,109.06,139.27Z"/><polygon class="cls-2" points="153.32 106.37 142.76 96.89 136.08 102.25 146 112 153.32 106.37"/><path class="cls-2" d="M114.79,71.45h0a6.69,6.69,0,0,1,0-13.37h0a6.69,6.69,0,0,1,0,13.37Zm0-12.17a5.49,5.49,0,0,0,0,11h0a5.48,5.48,0,0,0,5.49-5.47,5.5,5.5,0,0,0-5.47-5.5Z"/><path class="cls-2" d="M159.67,34.27a2.45,2.45,0,0,0,0-.27l-.28,0h-.55a16.73,16.73,0,0,1-16.65,16.25h0c0,.19,0,.38,0,.56A16.73,16.73,0,0,1,157.9,67.41l.56,0h.3A16.73,16.73,0,0,1,175.61,52c0-.18,0-.37,0-.56A16.74,16.74,0,0,1,159.67,34.27Z"/><path class="cls-2" d="M227.89,100.11c-3.73-1.35-7.17-1.43-8.35,2.36s1.63,5.56,5.38,6.64L379.56,155.6l.33-1.06Zm.66,5.08a2.22,2.22,0,1,1-1.46-2.78A2.23,2.23,0,0,1,228.55,105.19Z"/><path class="cls-2" d="M227,105.1a.61.61,0,0,1-.54-.33c-.32-.64-7.79-15.84-2.35-25.94,2.5-4.63,7.33-7.39,14.35-8.22a18,18,0,0,1,4.51.06,7.81,7.81,0,0,1,.61-1.19c5.76-9.2,17.9-14.09,28.88-11.62,4.48,1,8.22,3.41,11.83,5.73,6.22,4,12.1,7.78,20.79,3.45,10-5,12.63-15.73,7.86-32a.6.6,0,1,1,1.16-.34c4.88,16.64,1.95,28.18-8.49,33.38-9.3,4.64-15.46.68-22-3.51C280.12,62.34,276.47,60,272.2,59c-10.5-2.36-22.1,2.3-27.61,11.09a7.37,7.37,0,0,0-.39.74c4.16.8,8.25,2.91,10.22,6.24,1.43,2.41,1.83,6.63,0,9.26a4.53,4.53,0,0,1-4.88,1.84c-2.63-.47-4.73-2.33-6.08-5.39a17.37,17.37,0,0,1-.9-11,17.05,17.05,0,0,0-4,0c-6.61.78-11.13,3.34-13.43,7.6-5.15,9.54,2.29,24.68,2.37,24.83a.62.62,0,0,1-.27.81A.66.66,0,0,1,227,105.1ZM243.77,72a16.26,16.26,0,0,0,.79,10.31c.83,1.86,2.4,4.19,5.21,4.69a3.4,3.4,0,0,0,3.68-1.35c1.33-1.92,1.31-5.65-.06-8C251.6,74.67,247.69,72.74,243.77,72Z"/><path class="cls-2" d="M354.21,120.1H323V71.9h31.2Zm-30-1.2H353V73.1h-28.8Z"/><rect class="cls-2" x="313.11" y="70.5" width="51" height="4"/><rect class="cls-2" x="313.11" y="118.5" width="51" height="4"/><polygon class="cls-2" points="148.8 149.54 148.1 161.56 162.12 162.21 163 148 148.8 149.54"/><rect class="cls-2" x="323.61" y="77.5" width="30" height="2"/><rect class="cls-2" x="323.61" y="80.5" width="30" height="2"/><rect class="cls-2" x="323.61" y="83.5" width="30" height="2"/><rect class="cls-2" x="323.61" y="86.5" width="30" height="2"/><rect class="cls-2" x="323.61" y="89.5" width="30" height="2"/><rect class="cls-2" x="323.61" y="92.5" width="30" height="2"/><rect class="cls-2" x="323.61" y="95.5" width="30" height="2"/><rect class="cls-2" x="323.61" y="98.5" width="30" height="2"/><rect class="cls-2" x="323.61" y="101.5" width="30" height="2"/><rect class="cls-2" x="323.61" y="104.5" width="30" height="2"/><rect class="cls-2" x="323.61" y="107.5" width="30" height="2"/><rect class="cls-2" x="323.61" y="110.5" width="30" height="2"/><rect class="cls-2" x="323.61" y="113.5" width="30" height="2"/></svg>