<svg id="圖層_1" data-name="圖層 1" xmlns="http://www.w3.org/2000/svg" viewBox="0 0 400 200"><defs><style>.cls-1{fill:#003354;}.cls-2{fill:#68a9c7;}.cls-3{fill:#d1d1d3;}</style></defs><title>安心消費有保障</title><path class="cls-1" d="M265.64,169.16H101.88a7.22,7.22,0,0,1-7.21-7.22V29.62a7.21,7.21,0,0,1,7.21-7.21H301.26a7.21,7.21,0,0,1,7.21,7.21V76.74h-1.2V29.62a6,6,0,0,0-6-6H101.88a6,6,0,0,0-6,6V161.94a6,6,0,0,0,6,6H265.64Z"/><rect class="cls-1" x="307.27" y="83.21" width="1.2" height="26.75"/><circle class="cls-2" cx="149.46" cy="95.54" r="42.37"/><path class="cls-1" d="M149.13,99.26A11.31,11.31,0,1,1,160.43,88,11.32,11.32,0,0,1,149.13,99.26Zm0-21.41A10.11,10.11,0,1,0,159.24,88,10.12,10.12,0,0,0,149.13,77.85Z"/><path class="cls-1" d="M171.5,130.78h-1.2c0-13.57-10.49-26.88-21.17-26.88S128,117.21,128,130.78h-1.2c0-14.17,11.08-28.08,22.37-28.08S171.5,116.61,171.5,130.78Z"/><rect class="cls-3" x="209.08" y="63.69" width="86.36" height="10.71"/><polygon class="cls-3" points="268 134.5 209.08 134.34 209.08 123.64 269 123.5 268 134.5"/><path class="cls-1" d="M343.72,49.79a6.69,6.69,0,1,1,6.69-6.69,6.64,6.64,0,0,1-6.69,6.69Zm0-12.17A5.48,5.48,0,0,0,339.85,47a5.41,5.41,0,0,0,3.87,1.61h0a5.49,5.49,0,1,0,0-11Z"/><path class="cls-1" d="M56.2,180.89h-.53l-.67,0,0-.56A17.9,17.9,0,0,0,37.72,163l-.56,0,0-.68c0-.17,0-.35,0-.53v-.58l.58,0A17.81,17.81,0,0,0,55,143.34v-.59l.73,0h.47l.93,0,0,.88A18,18,0,0,0,74.69,161.5h.6v.6c0,.17,0,.33,0,.5l0,.7h-.56a17.92,17.92,0,0,0-17.54,17l0,.57ZM40.46,162.11a19.14,19.14,0,0,1,15.61,16.6,19.15,19.15,0,0,1,15.6-16.3A19.21,19.21,0,0,1,56,145.83,19,19,0,0,1,40.46,162.11Z"/><path class="cls-1" d="M370,47.76c0-.07,0-.15,0-.22h-.71a14.22,14.22,0,0,1-13.76,14.21h0c0,.17,0,.32,0,.48A14.23,14.23,0,0,1,369.29,76H370a14.24,14.24,0,0,1,14-13.52c0-.16,0-.32,0-.48A14.23,14.23,0,0,1,370,47.76Z"/><circle class="cls-1" cx="24.72" cy="139.21" r="6.72"/><path class="cls-1" d="M317.37,142a10.33,10.33,0,1,0-15.33,9L298.79,173H315.3l-3.25-21.94A10.31,10.31,0,0,0,317.37,142Z"/><rect class="cls-3" x="209.08" y="93.66" width="67.92" height="10.71"/><rect class="cls-3" x="284" y="93.66" width="11.44" height="10.71"/><path class="cls-1" d="M349,186.59H263.47l6.71-77.69H342.3l0,.55Zm-84.22-1.2H347.7l-6.51-75.29H271.28Z"/><path class="cls-1" d="M334.82,110.1H327.2V88.52a4.76,4.76,0,0,0-4.75-4.76H289.2a4.76,4.76,0,0,0-4.75,4.76V110.1h-7.62V88.52A12.39,12.39,0,0,1,289.2,76.14h33.25a12.39,12.39,0,0,1,12.37,12.38Zm-6.42-1.2h5.22V88.52a11.18,11.18,0,0,0-11.17-11.18H289.2A11.18,11.18,0,0,0,278,88.52V108.9h5.22V88.52a6,6,0,0,1,5.95-6h33.25a6,6,0,0,1,5.95,6Z"/></svg>