<svg id="圖層_1" data-name="圖層 1" xmlns="http://www.w3.org/2000/svg" viewBox="0 0 93 30"><defs><style>.cls-1{fill:#fff;}.cls-2{fill:#003354;}.cls-3{fill:#e19263;}.cls-4,.cls-5{fill:none;stroke-miterlimit:10;}.cls-4{stroke:#fff;stroke-width:0.54px;}.cls-5{stroke:#e19263;stroke-width:0.73px;}</style></defs><title>0121 App_icon</title><rect class="cls-1" width="93" height="30"/><path class="cls-2" d="M40.87,7.65a6.81,6.81,0,0,0-3.38.91V8.23a.55.55,0,0,0-.39-.52l-2.31-.62a.54.54,0,0,0-.67.52V21.94a.53.53,0,0,0,.53.53H37a.53.53,0,0,0,.53-.53V14.4a3.38,3.38,0,0,1,6.75,0v7.54a.53.53,0,0,0,.53.53h2.32a.53.53,0,0,0,.53-.53V14.4A6.75,6.75,0,0,0,40.87,7.65Z"/><path class="cls-2" d="M58.88,13.56l5.74-5.74a.43.43,0,0,0-.3-.73H61a1,1,0,0,0-.75.31l-3.65,3.65V2.68a.55.55,0,0,0-.39-.52l-2.32-.62a.54.54,0,0,0-.67.52V21.94a.54.54,0,0,0,.54.53h2.31a.53.53,0,0,0,.53-.53V16.08l6.08,6.08a1,1,0,0,0,.75.31h3a.53.53,0,0,0,.37-.91Z"/><path class="cls-2" d="M11,7a7.88,7.88,0,0,0-7.8,7.89v7.42a4.49,4.49,0,0,1-3,4.29.4.4,0,0,0-.07.72l2.19,1.27a1.08,1.08,0,0,0,1.18-.08,7.71,7.71,0,0,0,3.11-6.2V14.82a4.36,4.36,0,0,1,4.24-4.4,4.3,4.3,0,0,1,4.37,4.37A4.36,4.36,0,0,1,10.89,19H9a.54.54,0,0,0-.53.54v2.38a.53.53,0,0,0,.53.53h1.87a7.87,7.87,0,0,0,7.88-7.8A7.75,7.75,0,0,0,11,7Z"/><path class="cls-2" d="M76.91,7a7.87,7.87,0,1,0,7.88,7.87A7.87,7.87,0,0,0,76.91,7"/><path class="cls-2" d="M27.53,7.71l-2.31-.62a.54.54,0,0,0-.67.52V21.94a.53.53,0,0,0,.53.53H27.4a.53.53,0,0,0,.53-.53V8.23A.54.54,0,0,0,27.53,7.71Z"/><path class="cls-2" d="M92.61,7.71l-2.32-.62a.54.54,0,0,0-.67.52V21.94a.54.54,0,0,0,.54.53h2.31a.53.53,0,0,0,.53-.53V8.23A.55.55,0,0,0,92.61,7.71Z"/><path class="cls-3" d="M76.83,12.43A2.46,2.46,0,0,1,79,10.67a2.74,2.74,0,0,1,2.55,2.68,3.08,3.08,0,0,1,0,1.06,4.77,4.77,0,0,1-1.19,2.42l-3.18,3.38-3.38-3.12a4.74,4.74,0,0,1-1.38-2.31,3.09,3.09,0,0,1-.12-1,2.73,2.73,0,0,1,2.32-2.88A2.39,2.39,0,0,1,76.83,12.43Z"/><path class="cls-4" d="M76.87,13.19a1.84,1.84,0,0,1,1.63-1.32,2,2,0,0,1,1.91,2,2.45,2.45,0,0,1,0,.8,3.57,3.57,0,0,1-.9,1.81L77.1,19l-2.54-2.35a3.59,3.59,0,0,1-1-1.74,2.2,2.2,0,0,1-.09-.78A2.06,2.06,0,0,1,75.18,12,1.79,1.79,0,0,1,76.87,13.19Z"/><polyline class="cls-5" points="68.69 4.4 68.8 7.75 65.45 7.85"/><polyline class="cls-5" points="69.79 5.43 69.89 8.78 66.55 8.88"/><line class="cls-5" x1="66.52" y1="5.6" x2="84.54" y2="23.51"/><polygon class="cls-3" points="85.38 24.4 84.21 21.3 82.28 23.23 85.38 24.4"/></svg>